NNODES    12 NELL    2 NMAT   1
NODES
    1               0.0             0.0             0.0
    2               0.5             0.0             0.0
    3               0.5             0.5             0.0
    4               0.0             0.5             0.0
    5               0.0             0.0             0.5
    6               0.5             0.0             0.5
    7               0.5             0.5             0.5
    8               0.0             0.5             0.5
    9               1.0             0.0             0.0
    10              1.0             0.5             0.0
    11              1.0             0.0             0.5
    12              1.0             0.5             0.5
END_NODES
ELEMENTS
1 1 2 3 4 5 6 7 8 1
2 2 9 10 3 6 11 12 7 1
END_ELEMENTS
MATERIALS
      1   Mat-001 Custom
END_MATERIALS